<?xml version="1.0" encoding="UTF-8"?>
<svg xmlns="http://www.w3.org/2000/svg" viewBox="0 0 2789 1823.22">
  <defs>
    <style>
      .cls-1 {
        font-family: Oswald-Bold, Oswald;
        font-size: 347.27px;
      }

      .cls-1, .cls-2 {
        fill: #37131f;
      }

      .cls-3 {
        stroke-width: 26.09px;
      }

      .cls-3, .cls-4, .cls-5 {
        fill: none;
        stroke: #37131f;
        stroke-linecap: round;
        stroke-linejoin: round;
      }

      .cls-4 {
        stroke-width: 18.22px;
      }

      .cls-5 {
        stroke-width: 18.06px;
      }
    </style>
  </defs>
  <g id="Capa_2" data-name="Capa 2">
    <g>
      <path class="cls-4" d="M1223.81,722.57c-39.32,39.91-72.43,88.03-99.77,131.89-23.87,38.29-61.73,88.38-64.89,134.03-4.01,57.92,50.36,81.75,96.94,100.97,44.89,18.52,92.25,31.69,140.57,39.45,96.65,15.52,197.35,9.46,290.78-18.67,26.02-7.83,51.38-17.4,75.89-28.76,25.99-12.05,52.83-27.79,63.14-53.23,9.87-24.37,2.13-51.75-8.02-76.02-20.48-48.97-50.29-93.93-79.94-138.57-48.12-72.46-104.32-136.85-197.11-157.31-88.72-19.56-158.43,6.18-217.59,66.22Z"/>
      <path class="cls-2" d="M1470.15,911.16c11.99-21.79,31.88-38.99,54.71-48.76,26.37-11.3,56.6-11.77,84.25-5.78,9.53,1.9,15.69,11.26,13.65,20.77-2.11,10.3-13.23,16.43-23.07,12.75-20.18-7.35-41.87-10.59-62.92-5.91-10.54,2.28-20.6,6.51-29.73,12.31-9.38,5.97-17.97,13.61-24.63,22.56-5.64,6.99-16.33,.04-12.26-7.94h0Z"/>
      <path class="cls-2" d="M1306.39,918.6c-11.68-14.99-28.24-26.15-46.31-31.75-8.85-2.6-18.13-4.04-27.35-3.93-14.67,.03-28.96,3.25-42.83,8.42-23.36,7.76-35.83-25.17-13.08-34.78,1.01-.38,2.02-.66,3.06-.86,19.61-4.04,40.56-5.1,60.42-1.14,13.27,2.55,26.2,7.48,37.79,14.41,11.39,6.83,21.52,15.58,29.91,25.77,3.91,4.78,7.48,9.84,10.47,15.27,0,0,.68,1.29,.68,1.29,1.9,3.57,.55,8.01-3.02,9.91-3.49,1.87-7.64,.56-9.73-2.61h0Z"/>
      <path class="cls-2" d="M1347.73,990.53c-2.45-5.84-4.97-11.65-7.36-17.51-2.26-5.82,5.2-10.29,9.27-5.63,6.3,6.93,17.16,16.99,26.42,11.21,5.42-3.69,8.35-9.91,10.91-16.24,1.09-2.84,4.27-4.26,7.11-3.17,2.58,.9,3.19,3.43,4.44,5.55,3.25,5.74,8.27,12.31,14.13,14.8,7.09,2.99,13.42-1.79,18.35-7.21,2.3-2.5,6.06-2.85,8.41-.21,1.45,1.65,1.71,3.95,.85,5.83-5.49,11.86-10.57,23.88-15.56,35.93-1.36,3.22-4.28,10.69-5.73,13.77-3.89,8.09-11.2,14.64-20.01,16.85-14.53,3.87-29.36-4.68-35.29-18.1-4.49-10.17-11.64-25.74-15.93-35.86h0Zm9.33-3.64c2.89,8.23,6.68,19.53,9.42,27.81,.51,1.5,1.83,5.51,2.34,6.96,1.94,6.38,5.82,12.28,11.76,15.49,7.67,4.37,17.76,3.5,24.72-1.85,4.78-3.61,7.84-8.99,9.56-14.66,5.26-15.35,10.51-30.98,15.08-46.56,0,0,9.26,5.61,9.26,5.61-19.05,21.4-39.48,11.23-51.2-11.24-.31-.6-.57-1.1-.91-1.84l10.16-.29c-3.11,7.92-7.55,16.57-15.28,21.57q-40.62-13.24-40.62-13.24c26.11,22.72,9.46,11.06,0,0,0,0,9.27-5.63,9.27-5.63,2.21,5.94,4.29,11.92,6.44,17.88h0Z"/>
      <path class="cls-5" d="M1500.87,669.23l187.32-46.68c12.47-3.11,24.7,5.86,25.47,18.68,3.02,50.44,2.78,164.31-56.13,202.44"/>
      <path class="cls-5" d="M1288.26,669.06l-187.32-46.68c-12.47-3.11-24.7,5.86-25.47,18.68-3.02,50.44-2.78,164.31,56.13,202.44"/>
      <path class="cls-2" d="M1072.28,934.73l105.94,13.43c1.25,.16,2.13,1.3,1.97,2.54-.15,1.18-1.18,2.03-2.35,1.99l-106.7-4.31c-9.42-.8-8.33-14.41,1.14-13.65h0Z"/>
      <path class="cls-2" d="M1212.57,994.01l-148.54,9.62c-3.97,.26-7.4-2.76-7.66-6.73-.26-3.97,2.76-7.4,6.73-7.66,.09-.08,149.13,1.64,149.38,1.61,1.92,.04,2.17,2.98,.09,3.17h0Z"/>
      <path class="cls-2" d="M1186.81,1040.21l-95.55,18.22c-9.43,1.45-12.04-12.03-2.7-14.17,.82-.19,96.85-7.98,97.7-8.1,2.52-.17,3.08,3.51,.55,4.05h0Z"/>
      <path class="cls-2" d="M1712.51,953.17l-106.7,4.31c-1.26,.05-2.31-.93-2.36-2.18-.05-1.19,.83-2.2,1.99-2.35l105.94-13.43c9.41-.78,10.6,12.84,1.14,13.65h0Z"/>
      <path class="cls-2" d="M1571.17,995.64l148.84-1.62c3.98-.04,7.24,3.15,7.29,7.13,.04,3.98-3.15,7.24-7.13,7.29-.1,.08-148.82-9.65-149.08-9.63-1.92-.14-2-3.09,.08-3.17h0Z"/>
      <path class="cls-2" d="M1597.39,1040.95l96.94,7.99c9.48,1.14,8.4,14.79-1.19,14.38-.84-.03-95.46-18.21-96.31-18.32-2.48-.51-2.03-4.21,.55-4.05h0Z"/>
      <path class="cls-2" d="M1099.18,668.96c4.66,26.51,10.81,53.01,19.74,78.32,4.41,12.07,9.57,24.63,17.07,34.83,3.75,4.84,9.29,11.17,15.6,9.74,2.55-.6,4.55-1.95,7-4.02,3.78-3.27,9.49-2.86,12.76,.91,3.59,4.08,2.67,10.56-1.89,13.5-12.64,8.95-27.27,8.46-37.91-3.27-23.46-26.04-29.94-95-32.37-130.01h0Z"/>
      <path class="cls-2" d="M1690.83,669.11c-2.42,34.91-8.89,103.95-32.37,130.01-10.63,11.73-25.28,12.23-37.91,3.27-4.22-2.76-5.37-8.45-2.55-12.63,2.79-4.14,8.42-5.23,12.56-2.44,2.61,2.08,5.06,4.11,7.87,4.68,6.3,1.43,11.85-4.9,15.6-9.74,7.5-10.2,12.65-22.76,17.07-34.83,8.93-25.31,15.08-51.81,19.74-78.32h0Z"/>
      <path class="cls-2" d="M1330.85,659.72l10.77,96.18c.13,1.19-.72,2.26-1.91,2.39-1.12,.13-2.14-.64-2.36-1.72l-19.36-94.83c-1.42-8.89,11.45-10.97,12.86-2.03h0Z"/>
      <path class="cls-2" d="M1388.47,798.33l-5.44-148.75c-.15-3.98,2.96-7.32,6.94-7.47s7.32,2.96,7.47,6.94c.08,.1-5.83,149.02-5.8,149.28-.09,1.92-3.04,2.08-3.17,0h0Z"/>
      <path class="cls-2" d="M1451.77,761.37l2.23-97.24c.58-9.53,14.27-9.26,14.43,.33,.02,.84-12.51,96.37-12.58,97.22-.37,2.5-4.08,2.28-4.08-.31h0Z"/>
    </g>
  </g>
  <g id="Capa_10" data-name="Capa 10">
    <g>
      <path class="cls-3" d="M1223.81,722.57c-39.32,39.91-72.43,88.03-99.77,131.89-23.87,38.29-61.73,88.38-64.89,134.03-4.01,57.92,50.36,81.75,96.94,100.97,44.89,18.52,92.25,31.69,140.57,39.45,96.65,15.52,197.35,9.46,290.78-18.67,26.02-7.83,51.38-17.4,75.89-28.76,25.99-12.05,52.83-27.79,63.14-53.23,9.87-24.37,2.13-51.75-8.02-76.02-20.48-48.97-50.29-93.93-79.94-138.57-48.12-72.46-104.32-136.85-197.11-157.31-88.72-19.56-158.43,6.18-217.59,66.22Z"/>
      <path class="cls-2" d="M1471.74,912.07c12.04-21.11,31.7-37.6,54.12-46.82,25.84-10.64,55.2-10.66,82.07-4.43,16.8,4.44,11.4,28.68-5.74,25.5-23.89-8.24-50.06-11.07-74.26-2.79-7.87,2.72-15.41,6.39-22.37,11.03-9.24,6.17-17.76,13.93-24.26,22.98-3.88,5.94-12.76,.88-9.56-5.47h0Z"/>
      <path class="cls-2" d="M1308.27,917.52c-10.73-14.69-26.07-26.03-42.95-32.61-9.6-3.69-19.91-5.78-30.16-6.27-15.91-.64-31.61,2.23-46.75,7.44-6.82,2.35-14.26-1.27-16.62-8.09-2.58-7.32,1.98-15.41,9.56-17.03,15.78-3.59,32.38-5.08,48.64-3.57,11.43,1.13,22.74,3.83,33.37,8.16,16.42,6.73,31.26,17.51,42.75,30.96,4.2,4.96,8.01,10.12,11.14,15.85,2.98,5.97-5.32,10.72-8.99,5.15h0Z"/>
      <path class="cls-2" d="M1341.34,993.02c-2.73-5.72-5.46-11.45-8-17.26-2.88-6.53,.09-14.16,6.62-17.03,5.54-2.46,11.62-.62,15.35,3.69,3.92,4.29,9.84,10.17,15.25,10.38,1.6-.27,2.53-1.34,3.96-2.95,1.92-2.47,3.85-6.11,5.4-10.18,3.97-10.55,18.83-11.23,23.79-1.24,2.34,4.94,7.28,12.24,11.84,14.17,3.17,1.39,6.85-2.13,9.83-5.28,0,0,5.26-3.22,5.26-3.22,5.69-3.48,13.13-1.69,16.61,4.01,2.42,3.96,2.28,8.78,.06,12.51-3.4,5.67-6.49,11.48-9.48,17.32-2.99,5.84-5.85,11.73-8.6,17.66-2.69,5.45-4.76,11.26-7.86,16.5-4.75,7.76-12.47,13.92-21.47,16.04-16.22,4.3-33.18-5.47-40.33-20-.61-1.14-1.78-3.42-2.37-4.56-5.21-9.9-11.07-20.48-15.87-30.54h0Zm22.11-8.62c2.75,9.03,5.37,19.25,7.74,28.46,.61,2.31,1.83,6.99,2.49,9.28,1.34,4.93,4.36,9.3,8.67,11.73,8.71,5.21,20.58,1.43,25.37-7.33,1.35-2.25,2.21-4.98,2.96-7.49,.95-3.12,1.9-6.25,2.8-9.39,3.64-12.63,6.99-25.28,9.4-38.25,0,0,21.94,13.3,21.92,13.31-9.96,11.35-24.5,18.2-39.31,11.94-11.99-5.28-19.71-15.72-25.28-26.95,0,0,24.07-.69,24.07-.69-4.88,13.27-15.1,28.47-31.37,29.76-14.99,1.28-27.95-8.69-37.22-19.16,0,0,21.96-13.35,21.96-13.35,2.06,6,3.93,12.07,5.8,18.13h0Z"/>
      <path class="cls-3" d="M1500.87,669.23l187.32-46.68c12.47-3.11,24.7,5.86,25.47,18.68,3.02,50.44,2.78,164.31-56.13,202.44"/>
      <path class="cls-3" d="M1288.26,669.06l-187.32-46.68c-12.47-3.11-24.7,5.86-25.47,18.68-3.02,50.44-2.78,164.31,56.13,202.44"/>
      <path class="cls-2" d="M1072.8,928.55l105.6,17.56c5.2,.97,4.59,8.53-.72,8.63,0,0-107.05-.18-107.05-.18-7.23-.01-13.08-5.88-13.07-13.11-.06-7.99,7.38-14.26,15.24-12.89h0Z"/>
      <path class="cls-2" d="M1212.6,995.3l-148.41,14.17c-17.3,.98-19.72-23.69-2.49-26.04,.58-.06,1.22-.07,1.78-.05l148.96,6.18c3.49,.19,3.72,5.34,.15,5.73h0Z"/>
      <path class="cls-2" d="M1187.04,1041.86l-94.98,22.36c-7.05,1.66-14.1-2.71-15.76-9.75-1.66-7.05,2.71-14.1,9.75-15.76,.81-.19,1.69-.3,2.49-.34l97.5-3.85c4.45-.12,5.34,6.26,1,7.34h0Z"/>
      <path class="cls-2" d="M1713.03,959.35l-107.05,.18c-5.29-.1-5.94-7.65-.72-8.63,0,0,105.6-17.56,105.6-17.56,7.13-1.19,13.87,3.63,15.06,10.77,1.39,7.87-4.91,15.29-12.89,15.24h0Z"/>
      <path class="cls-2" d="M1571.21,994.36l148.96-6.18c17.33-.05,18.41,24.71,1.08,26.13-.58,.02-1.22,0-1.78-.05l-148.41-14.17c-3.47-.38-3.43-5.53,.15-5.73h0Z"/>
      <path class="cls-2" d="M1597.62,1039.31l97.5,3.85c7.23,.29,12.87,6.38,12.58,13.61-.29,7.23-6.38,12.87-13.61,12.58-.83-.03-1.71-.16-2.49-.34l-94.98-22.36c-4.32-1.08-3.47-7.46,1-7.34h0Z"/>
      <path class="cls-2" d="M1099.18,668.96c5.31,26.36,12.12,52.74,21.67,77.75,4.62,11.7,10.07,24.09,17.66,33.74,2.88,3.51,8.34,9.59,12.64,7.72,1.7-.7,3.01-1.68,5.02-3.55,5.24-5.02,13.55-4.84,18.56,.4,5.88,5.98,4.39,16.26-2.84,20.43-8.49,5.87-20.36,9.06-30.65,4.55-35.32-13.94-40.49-107.07-42.05-141.05h0Z"/>
      <path class="cls-2" d="M1690.83,669.11c-1.55,33.8-6.7,127.1-42.05,141.05-10.32,4.5-22.15,1.32-30.65-4.55-6.44-3.8-8.47-12.26-4.36-18.52,3.96-6.07,12.1-7.78,18.17-3.82,2.34,1.67,4.74,4.38,6.92,5.06,4.29,1.87,9.76-4.21,12.64-7.72,7.59-9.65,13.03-22.04,17.66-33.74,9.55-25.01,16.36-51.39,21.67-77.75h0Z"/>
      <path class="cls-2" d="M1337.3,658.71l6.45,96.86c.16,2.4-1.65,4.47-4.05,4.63-2.13,.14-4-1.28-4.51-3.28l-23.68-94.15c-1.76-7.02,2.49-14.13,9.51-15.9,7.82-2.05,15.8,3.78,16.27,11.83h0Z"/>
      <path class="cls-2" d="M1387.19,798.32l-10-148.75c-.49-17.32,24.23-19.04,26.1-1.75,.04,.58,.03,1.22,0,1.79l-10.36,148.73c-.29,3.48-5.44,3.57-5.74,0h0Z"/>
      <path class="cls-2" d="M1450.11,761.25l-1.94-97.56c-.14-7.24,5.61-13.22,12.84-13.37,7.24-.14,13.22,5.61,13.37,12.84,.02,.83-.06,1.71-.19,2.5l-16.69,96.14c-.82,4.38-7.24,3.91-7.39-.56h0Z"/>
    </g>
  </g>
  <g id="Capa_3" data-name="Capa 3">
    <text class="cls-1" transform="translate(862.41 968.28) rotate(-97.54)"><tspan x="0" y="0"> </tspan></text>
    <text class="cls-1" transform="translate(852.41 881.95) rotate(-88.4)"><tspan x="0" y="0"> </tspan></text>
    <text class="cls-1" transform="translate(856.19 795.29) rotate(-79.19)"><tspan x="0" y="0"> </tspan></text>
    <text class="cls-1" transform="translate(862.8 721.12) rotate(-64.63)"><tspan x="0" y="0">K</tspan></text>
    <text class="cls-1" transform="translate(942.04 552.05) rotate(-45.23)"><tspan x="0" y="0">A</tspan></text>
    <text class="cls-1" transform="translate(1068.23 426.07) rotate(-28.19)"><tspan x="0" y="0">T</tspan></text>
    <text class="cls-1" transform="translate(1203.9 353.15) rotate(-11.72)"><tspan x="0" y="0">T</tspan></text>
    <text class="cls-1" transform="translate(1364.09 325.6) rotate(1.14)"><tspan x="0" y="0">-</tspan></text>
    <text class="cls-1" transform="translate(1441.49 319.82) rotate(15.73)"><tspan x="0" y="0">K</tspan></text>
    <text class="cls-1" transform="translate(1621.18 369.48) rotate(35.24)"><tspan x="0" y="0">A</tspan></text>
    <text class="cls-1" transform="translate(1766.33 473.17) rotate(52.24)"><tspan x="0" y="0">T</tspan></text>
    <text class="cls-1" transform="translate(1860.92 594.99) rotate(68.63)"><tspan x="0" y="0">T</tspan></text>
    <text class="cls-1" transform="translate(554.66 747.65) rotate(95.41)"><tspan x="0" y="0"> </tspan></text>
    <text class="cls-1" transform="translate(547.15 882.9) rotate(86.28)"><tspan x="0" y="0"> </tspan></text>
    <text class="cls-1" transform="translate(561.26 1017.95) rotate(77.03)"><tspan x="0" y="0"> </tspan></text>
    <text class="cls-1" transform="translate(597.43 1164.37) rotate(62.48)"><tspan x="0" y="0">K</tspan></text>
    <text class="cls-1" transform="translate(745.13 1412.23) rotate(43.1)"><tspan x="0" y="0">A</tspan></text>
    <text class="cls-1" transform="translate(950.4 1584.77) rotate(26.04)"><tspan x="0" y="0">T</tspan></text>
    <text class="cls-1" transform="translate(1171.98 1679.27) rotate(9.57)"><tspan x="0" y="0">T</tspan></text>
    <text class="cls-1" transform="translate(1401.25 1704.58) rotate(-3.26)"><tspan x="0" y="0">-</tspan></text>
    <text class="cls-1" transform="translate(1555.08 1693.27) rotate(-17.88)"><tspan x="0" y="0">K</tspan></text>
    <text class="cls-1" transform="translate(1824.42 1588.88) rotate(-37.38)"><tspan x="0" y="0">A</tspan></text>
    <text class="cls-1" transform="translate(2028.41 1415.11) rotate(-54.38)"><tspan x="0" y="0">T</tspan></text>
    <text class="cls-1" transform="translate(2158.49 1212.55) rotate(-70.79)"><tspan x="0" y="0">T</tspan></text>
  </g>
</svg>